<svg height="256" viewBox="0 0 67.733 67.733" width="256" xmlns="http://www.w3.org/2000/svg"><g transform="translate(-.27657 1.2049)"><g transform="matrix(1 0 -.12239 .99248 0 0)"><path d="m35.224 28.207h30.212v12.736h-30.212z" fill="#06d6a0"/><path d="m34.723 27.705v13.74h31.215v-13.74zm1.0039 1.0039h29.207v11.732h-29.207z"/></g><g stroke-width=".26458"><path d="m43.674 31.351q.8255 0 1.27.4445.4445.43392.4445 1.2277 0 .27517-.04233.51858l-.0635.42333h-1.3864l.05292-.32808q.02117-.1905.02117-.28575 0-.43392-.24342-.65616-.23283-.23283-.67733-.23283-.508 0-.84666.30692-.32808.30692-.41275.86783l-.5715 3.6407h-1.3335l.92075-5.8208h1.2594l-.17992 1.1112h.01058q.46566-1.2171 1.778-1.2171z"/><path d="m47.564 37.278-.97366-5.8208h1.3335l.51858 3.5348q.08467.55033.13758 1.1959.24342-.64558.48683-1.1853l1.6298-3.5454h1.3758l-2.8046 5.8208z"/><path d="m57.159 31.351q.45508 0 .70908.29633.254.29633.254.81491 0 .16933-.03175.381l-.6985 4.4344h-1.1642l.68791-4.3392q.01058-.0635.01058-.1905 0-.46567-.40217-.46567-.24342 0-.40216.17992-.14817.16933-.1905.47625l-.6985 4.3392h-.9525l.68791-4.3392q.02117-.14817.02117-.1905 0-.23283-.11642-.34925-.10583-.11642-.3175-.11642-.46567 0-.5715.65616l-.68791 4.3392h-1.1642l.92075-5.8208h1.0795l-.127.78316h.0635q.11642-.41275.41275-.64558.30692-.24342.6985-.24342.35983 0 .56092.23283.21167.23283.23283.65616h.05292q.10583-.41275.41275-.64558.30692-.24342.71966-.24342z"/></g><g transform="matrix(1 0 -.12239 .99248 0 0)"><path d="m10.905 24.875h30.212v12.736h-30.212z" fill="#ef476f"/><path d="m10.404 24.373v13.74h24.37l-.05192 3.332 6.8965-3.332v-13.74zm1.002 1.0039h29.209v11.732h-29.209z"/></g><g stroke-width=".26458"><path d="m13.759 27.992q.73025 0 1.1536.45508.43392.45508.43392 1.2171 0 .21167-.03175.43392l-.61383 3.8206h-1.3229l.59266-3.683q.02117-.16933.02117-.24342 0-.41275-.23283-.635-.23283-.22225-.65616-.22225-.49742 0-.8255.29633-.3175.29633-.40217.84666l-.5715 3.6407h-1.3229l.92075-5.8208h1.2912l-.17992 1.1112h.03175q.17992-.5715.62442-.889.45508-.32808 1.0901-.32808z"/><path d="m19.629 27.992q.97366 0 1.524.49742.55033.49742.55033 1.3441 0 .127-.04233.4445l-.16933 1.0477h-3.5454l-.0635.41275q-.03175.16933-.03175.32808 0 .91016.99483.91016.89958 0 1.143-.60325h1.3017q-.27517.75142-.98425 1.2065-.70908.4445-1.6404.4445-.97366 0-1.5346-.49742-.55033-.49742-.55033-1.3441 0-.22225.03175-.4445l.23283-1.4605q.16933-1.0372.92075-1.6616t1.8627-.62442zm-1.5452 2.5082h2.2754l.03175-.22225q.03175-.17992.03175-.33867 0-.91016-.97366-.91016-.56092 0-.89958.3175-.33866.3175-.43392.93133z"/><path d="m25.001 34.025q-.98425 0-1.5346-.48683-.55033-.48683-.55033-1.3441 0-.13758.04233-.45508l.23283-1.4605q.16933-1.0477.91016-1.6616.75142-.62442 1.8627-.62442.98425 0 1.5346.48683.55033.48683.55033 1.3441 0 .127-.04233.4445l-.23283 1.4711q-.16933 1.0689-.91016 1.6827-.73025.60325-1.8627.60325zm.1905-1.1536q.51858 0 .84666-.28575.32808-.29633.41275-.84666l.23283-1.4605q.02117-.1905.02117-.27517 0-.42333-.24342-.635-.23283-.22225-.68791-.22225-.51858 0-.84666.29633-.32808.28575-.41275.83608l-.23283 1.4605q-.02117.1905-.02117.27517 0 .42333.23283.64558.24342.21167.6985.21167z"/><path d="m32.796 27.992q.73025 0 1.1536.45508.43392.45508.43392 1.2171 0 .21167-.03175.43392l-.61383 3.8206h-1.3229l.59266-3.683q.02117-.16933.02117-.24342 0-.41275-.23283-.635t-.65616-.22225q-.49742 0-.8255.29633-.3175.29633-.40216.84666l-.5715 3.6407h-1.3229l.92075-5.8208h1.2912l-.17992 1.1112h.03175q.17992-.5715.62441-.889.45508-.32808 1.0901-.32808z"/></g></g></svg>